

<svg width="91" height="86" viewBox="0 0 91 86" fill="none" xmlns="http://www.w3.org/2000/svg">
 <style>
    @import url("variables.css");
  </style>
<g id="&#240;&#159;&#166;&#134; icon &#34;cloud lightning&#34;">
<g id="Group">
<path id="Vector" d="M82.5153 67.927C80.1085 70.1522 77.3383 71.8325 74.341 72.9678C71.3438 74.1032 68.1194 71.9233 68.1194 68.699V62.7045C68.1194 53.849 60.9442 46.6737 52.0887 46.6737H38.7373C29.8817 
46.6737 22.7065 53.849 22.7065 62.7045V69.8798C22.7065 72.3775 20.6629
 74.4211 18.1652 74.4211H16.1216C4.99543 72.7408 0 63.7036 0 55.6201C0 
 47.9907 4.45047 39.5439 14.1234 37.1824C11.4441 26.6013 13.7147 16.6558
  20.6175 9.43515C28.4739 1.2154 41.0079 -2.05433 51.8162 1.30623C61.7616 
  4.3489 68.7552 12.5232 71.2529 23.8765C79.9268 25.8292 86.875 32.3687
   89.6452 41.4512C92.6424 51.3059 89.9177 61.4329 82.5153 
   67.927Z" fill="#2A45DB"/>
<path id="Vector_2" d="M52.0887 53.4843H38.7373C32.9698 53.4843 29.5184 56.9357 29.5184 62.7032V76.0546C29.5184 81.822 32.9698 85.2734 38.7373 85.2734H52.0887C57.8561 85.2734 61.3075 81.822 61.3075 76.0546V62.7032C61.3075 56.9357 57.8561 53.4843 52.0887 53.4843ZM52.9969 70.1055L45.413 78.7339L44.5047 79.7784C43.2786 81.1862 42.2341 80.8229 42.2341 78.9156V70.8321H38.7827C37.1932 70.8321 36.7845 69.8784 37.829 68.6977L45.413 60.0692L46.3212 59.0247C47.5474 57.6169 48.5919 57.9802 48.5919 59.8876V67.9711H52.0433C53.6327 67.9257 54.0414 68.9247 52.9969 70.1055Z" fill="#292D32"/>
</g>
</g>
</svg>
