<svg width="36" height="36" viewBox="0 0 36 36" fill="none" xmlns="http://www.w3.org/2000/svg">
<g id="&#240;&#159;&#166;&#134; icon &#34;search normal 1&#34;">
<g id="Group">
<path id="Vector" d="M17.1645 34.3257C7.70308 34.3257 0 26.6234 0 17.1629C0 7.70236 7.70308 0 17.1645 0C26.6259 0 34.3289 7.70236 34.3289 17.1629C34.3289 26.6234 26.6259 34.3257 17.1645 34.3257ZM17.1645 2.51164C9.07624 2.51164 2.51187 9.09213 2.51187 17.1629C2.51187 25.2336 9.07624 31.8141 17.1645 31.8141C25.2527 31.8141 31.8171 25.2336 31.8171 17.1629C31.8171 9.09213 25.2527 2.51164 17.1645 2.51164Z" fill="#292D32"/>
<path id="Vector_2" d="M34.7483 36C34.4301 36 34.112 35.8828 33.8608 35.6316L30.5116 32.2828C30.026 31.7972 30.026 30.9935 30.5116 30.5079C30.9973 30.0223 31.801 30.0223 32.2867 30.5079L35.6358 33.8567C36.1215 34.3423 36.1215 35.1461 35.6358 35.6316C35.3847 35.8828 35.0665 36 34.7483 36Z" fill="#292D32"/>
</g>
</g>
</svg>
